<svg version="1.1" xmlns="http://www.w3.org/2000/svg" viewBox="0 0 742.5 531.5" width="742.5" height="531.5" filter="invert(93%) hue-rotate(180deg)">
  <!-- svg-source:excalidraw -->
  
  <defs>
    <style>
      @font-face {
        font-family: "Virgil";
        src: url("https://excalidraw.com/Virgil.woff2");
      }
      @font-face {
        font-family: "Cascadia";
        src: url("https://excalidraw.com/Cascadia.woff2");
      }
    </style>
  </defs>
  <rect x="0" y="0" width="742.5" height="531.5" fill="#ffffff"></rect><g stroke-linecap="round" transform="translate(250 49.5) rotate(0 28 28)"><path d="M56 28 C56 29.62, 55.86 31.27, 55.57 32.86 C55.29 34.46, 54.87 36.05, 54.31 37.58 C53.76 39.1, 53.06 40.6, 52.25 42 C51.44 43.4, 50.49 44.76, 49.45 46 C48.41 47.24, 47.24 48.41, 46 49.45 C44.76 50.49, 43.4 51.44, 42 52.25 C40.6 53.06, 39.1 53.76, 37.58 54.31 C36.05 54.87, 34.46 55.29, 32.86 55.57 C31.27 55.86, 29.62 56, 28 56 C26.38 56, 24.73 55.86, 23.14 55.57 C21.54 55.29, 19.95 54.87, 18.42 54.31 C16.9 53.76, 15.4 53.06, 14 52.25 C12.6 51.44, 11.24 50.49, 10 49.45 C8.76 48.41, 7.59 47.24, 6.55 46 C5.51 44.76, 4.56 43.4, 3.75 42 C2.94 40.6, 2.24 39.1, 1.69 37.58 C1.13 36.05, 0.71 34.46, 0.43 32.86 C0.14 31.27, 0 29.62, 0 28 C0 26.38, 0.14 24.73, 0.43 23.14 C0.71 21.54, 1.13 19.95, 1.69 18.42 C2.24 16.9, 2.94 15.4, 3.75 14 C4.56 12.6, 5.51 11.24, 6.55 10 C7.59 8.76, 8.76 7.59, 10 6.55 C11.24 5.51, 12.6 4.56, 14 3.75 C15.4 2.94, 16.9 2.24, 18.42 1.69 C19.95 1.13, 21.54 0.71, 23.14 0.43 C24.73 0.14, 26.38 0, 28 0 C29.62 0, 31.27 0.14, 32.86 0.43 C34.46 0.71, 36.05 1.13, 37.58 1.69 C39.1 2.24, 40.6 2.94, 42 3.75 C43.4 4.56, 44.76 5.51, 46 6.55 C47.24 7.59, 48.41 8.76, 49.45 10 C50.49 11.24, 51.44 12.6, 52.25 14 C53.06 15.4, 53.76 16.9, 54.31 18.42 C54.87 19.95, 55.29 21.54, 55.57 23.14 C55.86 24.73, 55.93 27.19, 56 28 C56.07 28.81, 56.07 27.19, 56 28" stroke="#000000" stroke-width="2" fill="none"></path></g><g stroke-linecap="round" transform="translate(457 19.5) rotate(0 26.5 26)"><path d="M53 26 C53 27.5, 52.86 29.03, 52.6 30.51 C52.33 32, 51.93 33.48, 51.4 34.89 C50.88 36.31, 50.22 37.7, 49.45 39 C48.68 40.3, 47.79 41.56, 46.8 42.71 C45.81 43.87, 44.71 44.95, 43.53 45.92 C42.36 46.88, 41.08 47.76, 39.75 48.52 C38.42 49.27, 37 49.92, 35.56 50.43 C34.12 50.95, 32.61 51.34, 31.1 51.61 C29.59 51.87, 28.03 52, 26.5 52 C24.97 52, 23.41 51.87, 21.9 51.61 C20.39 51.34, 18.88 50.95, 17.44 50.43 C16 49.92, 14.58 49.27, 13.25 48.52 C11.92 47.76, 10.64 46.88, 9.47 45.92 C8.29 44.95, 7.19 43.87, 6.2 42.71 C5.21 41.56, 4.32 40.3, 3.55 39 C2.78 37.7, 2.12 36.31, 1.6 34.89 C1.07 33.48, 0.67 32, 0.4 30.51 C0.14 29.03, 0 27.5, 0 26 C0 24.5, 0.14 22.97, 0.4 21.49 C0.67 20, 1.07 18.52, 1.6 17.11 C2.12 15.69, 2.78 14.3, 3.55 13 C4.32 11.7, 5.21 10.44, 6.2 9.29 C7.19 8.13, 8.29 7.05, 9.47 6.08 C10.64 5.12, 11.92 4.24, 13.25 3.48 C14.58 2.73, 16 2.08, 17.44 1.57 C18.88 1.05, 20.39 0.66, 21.9 0.39 C23.41 0.13, 24.97 0, 26.5 0 C28.03 0, 29.59 0.13, 31.1 0.39 C32.61 0.66, 34.12 1.05, 35.56 1.57 C37 2.08, 38.42 2.73, 39.75 3.48 C41.08 4.24, 42.36 5.12, 43.53 6.08 C44.71 7.05, 45.81 8.13, 46.8 9.29 C47.79 10.44, 48.68 11.7, 49.45 13 C50.22 14.3, 50.88 15.69, 51.4 17.11 C51.93 18.52, 52.33 20, 52.6 21.49 C52.86 22.97, 52.93 25.25, 53 26 C53.07 26.75, 53.07 25.25, 53 26" stroke="#000000" stroke-width="2" fill="none"></path></g><g stroke-linecap="round" transform="translate(374.75 228.5) rotate(0 26.5 26)"><path d="M53 26 C53 27.5, 52.86 29.03, 52.6 30.51 C52.33 32, 51.93 33.48, 51.4 34.89 C50.88 36.31, 50.22 37.7, 49.45 39 C48.68 40.3, 47.79 41.56, 46.8 42.71 C45.81 43.87, 44.71 44.95, 43.53 45.92 C42.36 46.88, 41.08 47.76, 39.75 48.52 C38.42 49.27, 37 49.92, 35.56 50.43 C34.12 50.95, 32.61 51.34, 31.1 51.61 C29.59 51.87, 28.03 52, 26.5 52 C24.97 52, 23.41 51.87, 21.9 51.61 C20.39 51.34, 18.88 50.95, 17.44 50.43 C16 49.92, 14.58 49.27, 13.25 48.52 C11.92 47.76, 10.64 46.88, 9.47 45.92 C8.29 44.95, 7.19 43.87, 6.2 42.71 C5.21 41.56, 4.32 40.3, 3.55 39 C2.78 37.7, 2.12 36.31, 1.6 34.89 C1.07 33.48, 0.67 32, 0.4 30.51 C0.14 29.03, 0 27.5, 0 26 C0 24.5, 0.14 22.97, 0.4 21.49 C0.67 20, 1.07 18.52, 1.6 17.11 C2.12 15.69, 2.78 14.3, 3.55 13 C4.32 11.7, 5.21 10.44, 6.2 9.29 C7.19 8.13, 8.29 7.05, 9.47 6.08 C10.64 5.12, 11.92 4.24, 13.25 3.48 C14.58 2.73, 16 2.08, 17.44 1.57 C18.88 1.05, 20.39 0.66, 21.9 0.39 C23.41 0.13, 24.97 0, 26.5 0 C28.03 0, 29.59 0.13, 31.1 0.39 C32.61 0.66, 34.12 1.05, 35.56 1.57 C37 2.08, 38.42 2.73, 39.75 3.48 C41.08 4.24, 42.36 5.12, 43.53 6.08 C44.71 7.05, 45.81 8.13, 46.8 9.29 C47.79 10.44, 48.68 11.7, 49.45 13 C50.22 14.3, 50.88 15.69, 51.4 17.11 C51.93 18.52, 52.33 20, 52.6 21.49 C52.86 22.97, 52.93 25.25, 53 26 C53.07 26.75, 53.07 25.25, 53 26" stroke="#000000" stroke-width="2" fill="none"></path></g><g stroke-linecap="round" transform="translate(635.5 156.5) rotate(0 26.5 26)"><path d="M53 26 C53 27.5, 52.86 29.03, 52.6 30.51 C52.33 32, 51.93 33.48, 51.4 34.89 C50.88 36.31, 50.22 37.7, 49.45 39 C48.68 40.3, 47.79 41.56, 46.8 42.71 C45.81 43.87, 44.71 44.95, 43.53 45.92 C42.36 46.88, 41.08 47.76, 39.75 48.52 C38.42 49.27, 37 49.92, 35.56 50.43 C34.12 50.95, 32.61 51.34, 31.1 51.61 C29.59 51.87, 28.03 52, 26.5 52 C24.97 52, 23.41 51.87, 21.9 51.61 C20.39 51.34, 18.88 50.95, 17.44 50.43 C16 49.92, 14.58 49.27, 13.25 48.52 C11.92 47.76, 10.64 46.88, 9.47 45.92 C8.29 44.95, 7.19 43.87, 6.2 42.71 C5.21 41.56, 4.32 40.3, 3.55 39 C2.78 37.7, 2.12 36.31, 1.6 34.89 C1.07 33.48, 0.67 32, 0.4 30.51 C0.14 29.03, 0 27.5, 0 26 C0 24.5, 0.14 22.97, 0.4 21.49 C0.67 20, 1.07 18.52, 1.6 17.11 C2.12 15.69, 2.78 14.3, 3.55 13 C4.32 11.7, 5.21 10.44, 6.2 9.29 C7.19 8.13, 8.29 7.05, 9.47 6.08 C10.64 5.12, 11.92 4.24, 13.25 3.48 C14.58 2.73, 16 2.08, 17.44 1.57 C18.88 1.05, 20.39 0.66, 21.9 0.39 C23.41 0.13, 24.97 0, 26.5 0 C28.03 0, 29.59 0.13, 31.1 0.39 C32.61 0.66, 34.12 1.05, 35.56 1.57 C37 2.08, 38.42 2.73, 39.75 3.48 C41.08 4.24, 42.36 5.12, 43.53 6.08 C44.71 7.05, 45.81 8.13, 46.8 9.29 C47.79 10.44, 48.68 11.7, 49.45 13 C50.22 14.3, 50.88 15.69, 51.4 17.11 C51.93 18.52, 52.33 20, 52.6 21.49 C52.86 22.97, 52.93 25.25, 53 26 C53.07 26.75, 53.07 25.25, 53 26" stroke="#000000" stroke-width="2" fill="none"></path></g><g stroke-linecap="round"><g transform="translate(303 59.5) rotate(0 79 -11)"><path d="M0 0 C26.33 -3.67, 131.67 -18.33, 158 -22 M0 0 C26.33 -3.67, 131.67 -18.33, 158 -22" stroke="#000000" stroke-width="2" fill="none"></path></g></g><g stroke-linecap="round"><g transform="translate(513 49.5) rotate(0 72 53.5)"><path d="M0 0 C24 17.83, 120 89.17, 144 107 M0 0 C24 17.83, 120 89.17, 144 107" stroke="#000000" stroke-width="2" fill="none"></path></g></g><g stroke-linecap="round"><g transform="translate(59 115.5) rotate(0 66 83)"><path d="M0 0 C22 27.67, 110 138.33, 132 166 M0 0 C22 27.67, 110 138.33, 132 166" stroke="#000000" stroke-width="2" fill="none"></path></g></g><g stroke-linecap="round"><g transform="translate(425 254.5) rotate(0 105.5 -27)"><path d="M0 0 C35.17 -9, 175.83 -45, 211 -54 M0 0 C35.17 -9, 175.83 -45, 211 -54" stroke="#000000" stroke-width="2" fill="none"></path></g></g><g transform="translate(270.5 65) rotate(0 7.5 12.5)"><text x="7.5" y="18" font-family="Virgil, Segoe UI Emoji" font-size="20px" fill="#000000" text-anchor="middle" style="white-space: pre;" direction="ltr">A</text></g><g transform="translate(475 33) rotate(0 8.5 12.5)"><text x="8.5" y="18" font-family="Virgil, Segoe UI Emoji" font-size="20px" fill="#000000" text-anchor="middle" style="white-space: pre;" direction="ltr">B</text></g><g transform="translate(654.5 170) rotate(0 7.5 12.5)"><text x="7.5" y="18" font-family="Virgil, Segoe UI Emoji" font-size="20px" fill="#000000" text-anchor="middle" style="white-space: pre;" direction="ltr">C</text></g><g transform="translate(392.25 242) rotate(0 9 12.5)"><text x="9" y="18" font-family="Virgil, Segoe UI Emoji" font-size="20px" fill="#000000" text-anchor="middle" style="white-space: pre;" direction="ltr">D</text></g><g stroke-linecap="round" transform="translate(191.5 275.5) rotate(0 26.5 26)"><path d="M53 26 C53 27.5, 52.86 29.03, 52.6 30.51 C52.33 32, 51.93 33.48, 51.4 34.89 C50.88 36.31, 50.22 37.7, 49.45 39 C48.68 40.3, 47.79 41.56, 46.8 42.71 C45.81 43.87, 44.71 44.95, 43.53 45.92 C42.36 46.88, 41.08 47.76, 39.75 48.52 C38.42 49.27, 37 49.92, 35.56 50.43 C34.12 50.95, 32.61 51.34, 31.1 51.61 C29.59 51.87, 28.03 52, 26.5 52 C24.97 52, 23.41 51.87, 21.9 51.61 C20.39 51.34, 18.88 50.95, 17.44 50.43 C16 49.92, 14.58 49.27, 13.25 48.52 C11.92 47.76, 10.64 46.88, 9.47 45.92 C8.29 44.95, 7.19 43.87, 6.2 42.71 C5.21 41.56, 4.32 40.3, 3.55 39 C2.78 37.7, 2.12 36.31, 1.6 34.89 C1.07 33.48, 0.67 32, 0.4 30.51 C0.14 29.03, 0 27.5, 0 26 C0 24.5, 0.14 22.97, 0.4 21.49 C0.67 20, 1.07 18.52, 1.6 17.11 C2.12 15.69, 2.78 14.3, 3.55 13 C4.32 11.7, 5.21 10.44, 6.2 9.29 C7.19 8.13, 8.29 7.05, 9.47 6.08 C10.64 5.12, 11.92 4.24, 13.25 3.48 C14.58 2.73, 16 2.08, 17.44 1.57 C18.88 1.05, 20.39 0.66, 21.9 0.39 C23.41 0.13, 24.97 0, 26.5 0 C28.03 0, 29.59 0.13, 31.1 0.39 C32.61 0.66, 34.12 1.05, 35.56 1.57 C37 2.08, 38.42 2.73, 39.75 3.48 C41.08 4.24, 42.36 5.12, 43.53 6.08 C44.71 7.05, 45.81 8.13, 46.8 9.29 C47.79 10.44, 48.68 11.7, 49.45 13 C50.22 14.3, 50.88 15.69, 51.4 17.11 C51.93 18.52, 52.33 20, 52.6 21.49 C52.86 22.97, 52.93 25.25, 53 26 C53.07 26.75, 53.07 25.25, 53 26" stroke="#000000" stroke-width="2" fill="none"></path></g><g transform="translate(211.5 289) rotate(0 6.5 12.5)"><text x="6.5" y="18" font-family="Virgil, Segoe UI Emoji" font-size="20px" fill="#000000" text-anchor="middle" style="white-space: pre;" direction="ltr">H</text></g><g stroke-linecap="round" transform="translate(679.5 296.25) rotate(0 26.5 26)"><path d="M53 26 C53 27.5, 52.86 29.03, 52.6 30.51 C52.33 32, 51.93 33.48, 51.4 34.89 C50.88 36.31, 50.22 37.7, 49.45 39 C48.68 40.3, 47.79 41.56, 46.8 42.71 C45.81 43.87, 44.71 44.95, 43.53 45.92 C42.36 46.88, 41.08 47.76, 39.75 48.52 C38.42 49.27, 37 49.92, 35.56 50.43 C34.12 50.95, 32.61 51.34, 31.1 51.61 C29.59 51.87, 28.03 52, 26.5 52 C24.97 52, 23.41 51.87, 21.9 51.61 C20.39 51.34, 18.88 50.95, 17.44 50.43 C16 49.92, 14.58 49.27, 13.25 48.52 C11.92 47.76, 10.64 46.88, 9.47 45.92 C8.29 44.95, 7.19 43.87, 6.2 42.71 C5.21 41.56, 4.32 40.3, 3.55 39 C2.78 37.7, 2.12 36.31, 1.6 34.89 C1.07 33.48, 0.67 32, 0.4 30.51 C0.14 29.03, 0 27.5, 0 26 C0 24.5, 0.14 22.97, 0.4 21.49 C0.67 20, 1.07 18.52, 1.6 17.11 C2.12 15.69, 2.78 14.3, 3.55 13 C4.32 11.7, 5.21 10.44, 6.2 9.29 C7.19 8.13, 8.29 7.05, 9.47 6.08 C10.64 5.12, 11.92 4.24, 13.25 3.48 C14.58 2.73, 16 2.08, 17.44 1.57 C18.88 1.05, 20.39 0.66, 21.9 0.39 C23.41 0.13, 24.97 0, 26.5 0 C28.03 0, 29.59 0.13, 31.1 0.39 C32.61 0.66, 34.12 1.05, 35.56 1.57 C37 2.08, 38.42 2.73, 39.75 3.48 C41.08 4.24, 42.36 5.12, 43.53 6.08 C44.71 7.05, 45.81 8.13, 46.8 9.29 C47.79 10.44, 48.68 11.7, 49.45 13 C50.22 14.3, 50.88 15.69, 51.4 17.11 C51.93 18.52, 52.33 20, 52.6 21.49 C52.86 22.97, 52.93 25.25, 53 26 C53.07 26.75, 53.07 25.25, 53 26" stroke="#000000" stroke-width="2" fill="none"></path></g><g transform="translate(697 309.75) rotate(0 9 12.5)"><text x="9" y="18" font-family="Virgil, Segoe UI Emoji" font-size="20px" fill="#000000" text-anchor="middle" style="white-space: pre;" direction="ltr">Z</text></g><g stroke-linecap="round"><g transform="translate(683 208.5) rotate(0 11.5 44)"><path d="M0 0 C3.83 14.67, 19.17 73.33, 23 88 M0 0 C3.83 14.67, 19.17 73.33, 23 88" stroke="#000000" stroke-width="1" fill="none"></path></g></g><g stroke-linecap="round" transform="translate(432.5 469.5) rotate(0 26.5 26)"><path d="M53 26 C53 27.5, 52.86 29.03, 52.6 30.51 C52.33 32, 51.93 33.48, 51.4 34.89 C50.88 36.31, 50.22 37.7, 49.45 39 C48.68 40.3, 47.79 41.56, 46.8 42.71 C45.81 43.87, 44.71 44.95, 43.53 45.92 C42.36 46.88, 41.08 47.76, 39.75 48.52 C38.42 49.27, 37 49.92, 35.56 50.43 C34.12 50.95, 32.61 51.34, 31.1 51.61 C29.59 51.87, 28.03 52, 26.5 52 C24.97 52, 23.41 51.87, 21.9 51.61 C20.39 51.34, 18.88 50.95, 17.44 50.43 C16 49.92, 14.58 49.27, 13.25 48.52 C11.92 47.76, 10.64 46.88, 9.47 45.92 C8.29 44.95, 7.19 43.87, 6.2 42.71 C5.21 41.56, 4.32 40.3, 3.55 39 C2.78 37.7, 2.12 36.31, 1.6 34.89 C1.07 33.48, 0.67 32, 0.4 30.51 C0.14 29.03, 0 27.5, 0 26 C0 24.5, 0.14 22.97, 0.4 21.49 C0.67 20, 1.07 18.52, 1.6 17.11 C2.12 15.69, 2.78 14.3, 3.55 13 C4.32 11.7, 5.21 10.44, 6.2 9.29 C7.19 8.13, 8.29 7.05, 9.47 6.08 C10.64 5.12, 11.92 4.24, 13.25 3.48 C14.58 2.73, 16 2.08, 17.44 1.57 C18.88 1.05, 20.39 0.66, 21.9 0.39 C23.41 0.13, 24.97 0, 26.5 0 C28.03 0, 29.59 0.13, 31.1 0.39 C32.61 0.66, 34.12 1.05, 35.56 1.57 C37 2.08, 38.42 2.73, 39.75 3.48 C41.08 4.24, 42.36 5.12, 43.53 6.08 C44.71 7.05, 45.81 8.13, 46.8 9.29 C47.79 10.44, 48.68 11.7, 49.45 13 C50.22 14.3, 50.88 15.69, 51.4 17.11 C51.93 18.52, 52.33 20, 52.6 21.49 C52.86 22.97, 52.93 25.25, 53 26 C53.07 26.75, 53.07 25.25, 53 26" stroke="#000000" stroke-width="2" fill="none"></path></g><g transform="translate(452 483) rotate(0 7 12.5)"><text x="7" y="18" font-family="Virgil, Segoe UI Emoji" font-size="20px" fill="#000000" text-anchor="middle" style="white-space: pre;" direction="ltr">L</text></g><g stroke-linecap="round"><g transform="translate(705 347.25) rotate(0 -111 68)"><path d="M0 0 C-37 22.67, -185 113.33, -222 136 M0 0 C-37 22.67, -185 113.33, -222 136" stroke="#000000" stroke-width="1" fill="none"></path></g></g><g stroke-linecap="round"><g transform="translate(405 274.5) rotate(0 24.5 100.5)"><path d="M0 0 C8.17 33.5, 40.83 167.5, 49 201 M0 0 C8.17 33.5, 40.83 167.5, 49 201" stroke="#000000" stroke-width="1" fill="none"></path></g></g><g stroke-linecap="round"><g transform="translate(227 326.5) rotate(0 105 84)"><path d="M0 0 C35 28, 175 140, 210 168 M0 0 C35 28, 175 140, 210 168" stroke="#000000" stroke-width="1" fill="none"></path></g></g><g stroke-linecap="round" transform="translate(10 63.5) rotate(0 28 28)"><path d="M56 28 C56 29.62, 55.86 31.27, 55.57 32.86 C55.29 34.46, 54.87 36.05, 54.31 37.58 C53.76 39.1, 53.06 40.6, 52.25 42 C51.44 43.4, 50.49 44.76, 49.45 46 C48.41 47.24, 47.24 48.41, 46 49.45 C44.76 50.49, 43.4 51.44, 42 52.25 C40.6 53.06, 39.1 53.76, 37.58 54.31 C36.05 54.87, 34.46 55.29, 32.86 55.57 C31.27 55.86, 29.62 56, 28 56 C26.38 56, 24.73 55.86, 23.14 55.57 C21.54 55.29, 19.95 54.87, 18.42 54.31 C16.9 53.76, 15.4 53.06, 14 52.25 C12.6 51.44, 11.24 50.49, 10 49.45 C8.76 48.41, 7.59 47.24, 6.55 46 C5.51 44.76, 4.56 43.4, 3.75 42 C2.94 40.6, 2.24 39.1, 1.69 37.58 C1.13 36.05, 0.71 34.46, 0.43 32.86 C0.14 31.27, 0 29.62, 0 28 C0 26.38, 0.14 24.73, 0.43 23.14 C0.71 21.54, 1.13 19.95, 1.69 18.42 C2.24 16.9, 2.94 15.4, 3.75 14 C4.56 12.6, 5.51 11.24, 6.55 10 C7.59 8.76, 8.76 7.59, 10 6.55 C11.24 5.51, 12.6 4.56, 14 3.75 C15.4 2.94, 16.9 2.24, 18.42 1.69 C19.95 1.13, 21.54 0.71, 23.14 0.43 C24.73 0.14, 26.38 0, 28 0 C29.62 0, 31.27 0.14, 32.86 0.43 C34.46 0.71, 36.05 1.13, 37.58 1.69 C39.1 2.24, 40.6 2.94, 42 3.75 C43.4 4.56, 44.76 5.51, 46 6.55 C47.24 7.59, 48.41 8.76, 49.45 10 C50.49 11.24, 51.44 12.6, 52.25 14 C53.06 15.4, 53.76 16.9, 54.31 18.42 C54.87 19.95, 55.29 21.54, 55.57 23.14 C55.86 24.73, 55.93 27.19, 56 28 C56.07 28.81, 56.07 27.19, 56 28" stroke="#000000" stroke-width="2" fill="none"></path></g><g transform="translate(30.5 79) rotate(0 7.5 12.5)"><text x="7.5" y="18" font-family="Virgil, Segoe UI Emoji" font-size="20px" fill="#000000" text-anchor="middle" style="white-space: pre;" direction="ltr">P</text></g><g transform="translate(266.8888888888889 420) rotate(0 11 12.5)"><text x="0" y="18" font-family="Virgil, Segoe UI Emoji" font-size="20px" fill="#000000" text-anchor="start" style="white-space: pre;" direction="ltr">12</text></g><g transform="translate(64.38888888888891 200) rotate(0 10.5 12.5)"><text x="0" y="18" font-family="Virgil, Segoe UI Emoji" font-size="20px" fill="#000000" text-anchor="start" style="white-space: pre;" direction="ltr">10</text></g><g transform="translate(395.6388888888889 352.5) rotate(0 6.5 12.5)"><text x="0" y="18" font-family="Virgil, Segoe UI Emoji" font-size="20px" fill="#000000" text-anchor="start" style="white-space: pre;" direction="ltr">7</text></g><g transform="translate(503.1388888888889 187.5) rotate(0 6.5 12.5)"><text x="0" y="18" font-family="Virgil, Segoe UI Emoji" font-size="20px" fill="#000000" text-anchor="start" style="white-space: pre;" direction="ltr">7</text></g><g transform="translate(615.6388888888889 436.25) rotate(0 3.5 12.5)"><text x="0" y="18" font-family="Virgil, Segoe UI Emoji" font-size="20px" fill="#000000" text-anchor="start" style="white-space: pre;" direction="ltr">1</text></g><g transform="translate(598.1388888888889 61.25) rotate(0 11 12.5)"><text x="0" y="18" font-family="Virgil, Segoe UI Emoji" font-size="20px" fill="#000000" text-anchor="start" style="white-space: pre;" direction="ltr">12</text></g><g transform="translate(350.6388888888889 10) rotate(0 15 12.5)"><text x="0" y="18" font-family="Virgil, Segoe UI Emoji" font-size="20px" fill="#000000" text-anchor="start" style="white-space: pre;" direction="ltr">20</text></g><g transform="translate(714.3888888888889 242.5) rotate(0 6.5 12.5)"><text x="0" y="18" font-family="Virgil, Segoe UI Emoji" font-size="20px" fill="#000000" text-anchor="start" style="white-space: pre;" direction="ltr">11</text></g></svg>